<svg width="29" height="29" viewBox="0 0 29 29" fill="none" xmlns="http://www.w3.org/2000/svg">
<path d="M17.8678 25.1872C15.7224 26.0847 13.3907 26.7938 11.0706 26.4937C8.75052 26.1936 6.56109 25.289 4.74119 23.8787C2.92128 22.4684 1.54082 20.6065 0.750439 18.4962C-0.0399462 16.3859 -0.209895 14.1082 0.259138 11.9117C0.72817 9.71525 1.81816 7.68431 3.41019 6.04054C5.00221 4.39676 7.0351 3.20329 9.28704 2.59036C11.539 1.97742 13.9235 1.96857 16.1803 2.56476C18.4371 3.16096 19.6849 4.33929 21.2901 5.9712C19.9697 4.6289 18.0366 3.85872 16.1803 3.36833C14.324 2.87794 11.7339 3.15992 9.88162 3.66407C8.02933 4.16823 5.83597 5.81189 4.74119 6.94226C3.4317 8.29432 2.57839 10.1051 2.1926 11.9117C1.80681 13.7184 1.83135 16.4673 2.48146 18.2031C3.13158 19.9389 4.49081 22.013 5.98774 23.173C7.48466 24.333 9.74855 25.52 11.6569 25.7669C13.5652 26.0137 16.1031 25.9254 17.8678 25.1872Z" fill="#00309E"/>
<path d="M9.41797 3.07327C10.6617 2.73475 11.948 2.58726 13.2285 2.63186C11.995 2.69316 10.759 2.90705 9.75 3.18166C8.75018 3.45385 7.68768 4.02341 6.74902 4.65334C5.8065 5.28589 4.95628 6.00163 4.38184 6.59475C2.99578 8.02599 2.1057 9.92695 1.7041 11.8076C1.50129 12.7575 1.40888 13.9381 1.44922 15.1016C1.48945 16.2613 1.66281 17.441 2.01367 18.378C2.68853 20.1798 4.09558 22.3393 5.68164 23.5684C6.63021 24.3034 7.88747 25.0566 9.1875 25.5879C7.68427 25.1481 6.27756 24.4363 5.04785 23.4834C3.29974 22.1287 1.97588 20.3426 1.21875 18.3213C0.461774 16.3002 0.299136 14.1193 0.748047 12.0166C1.1971 9.91369 2.24149 7.96643 3.76953 6.38869C5.29767 4.81088 7.25107 3.66314 9.41797 3.07327Z" stroke="#00309E" stroke-opacity="0.2"/>
<path d="M4.82994 25.2287C6.79672 26.6733 9.12761 27.6145 11.5982 27.9618C14.0688 28.3091 16.5959 28.0507 18.9362 27.2116C21.2765 26.3725 23.3512 24.9809 24.9605 23.1708C26.5699 21.3607 27.6596 19.193 28.125 16.8764C28.5903 14.5598 28.4155 12.1724 27.6174 9.94397C26.8193 7.71553 25.4247 5.72113 23.568 4.15279C21.7113 2.58444 19.4549 1.49496 17.0162 0.98923C14.5774 0.483503 12.0383 0.578566 9.64346 1.26526L7.77174 2.01304C9.8158 1.42694 13.6737 1.27587 15.7552 1.70751C17.8367 2.13915 20.4803 3.8248 22.065 5.1634C23.6498 6.502 24.9147 8.69336 25.5959 10.5953C26.2771 12.4973 26.4263 14.535 26.0291 16.5122C25.632 18.4894 24.7018 20.3396 23.3282 21.8846C21.9546 23.4295 19.9266 25.241 17.9291 25.9571C15.9317 26.6733 15.4383 27.2213 11.6002 27.2319C9.49156 26.9354 6.50861 26.4616 4.82994 25.2287Z" fill="#6B7E3A"/>
<path d="M14.1573 27.6043C14.7137 27.5392 15.1711 27.4519 15.583 27.3419C16.0365 27.2207 16.4258 27.0772 16.8191 26.9225C17.2162 26.7663 17.607 26.6036 18.0967 26.428C20.215 25.6684 22.3122 23.7795 23.7017 22.2166C25.1329 20.6069 26.1037 18.6757 26.5188 16.6092C26.9339 14.5426 26.7787 12.4126 26.067 10.4254C25.3675 8.4724 24.0614 6.19427 22.388 4.78074C21.573 4.0924 20.4915 3.31937 19.3463 2.66173C18.465 2.15562 17.5268 1.70944 16.6319 1.42527C16.7257 1.44284 16.8197 1.45917 16.9132 1.47856C19.2726 1.96783 21.4529 3.02158 23.2446 4.53495C25.0362 6.04828 26.3793 7.97065 27.147 10.1141C27.9144 12.257 28.0819 14.5518 27.6347 16.7786C27.1873 19.0059 26.1391 21.0941 24.5873 22.8395C23.0354 24.585 21.0314 25.9296 18.768 26.7412C17.2869 27.2722 15.7279 27.561 14.1573 27.6043Z" stroke="#6B7E3A" stroke-opacity="0.2"/>
<path fill-rule="evenodd" clip-rule="evenodd" d="M15.4029 9.65702C15.3985 9.69471 15.3863 9.71168 15.3671 9.7031C15.3449 9.69319 15.3602 9.6756 15.4029 9.65702C15.4465 9.28631 14.7408 6.91096 12.6127 7.13174C12.6127 7.13174 10.8262 6.80776 8.0153 9.72506C5.20442 12.6424 4.4858 16.5413 4.4858 16.5413C4.4858 16.5413 3.7089 20.8948 5.60371 21.8618C7.49851 22.8289 9.7913 20.6967 9.7913 20.6967C9.7913 20.6967 11.8133 18.798 11.8869 18.3304C11.9605 17.8629 12.1596 20.0251 12.9773 20.7362C13.3502 21.0605 13.719 21.2818 14.0439 21.427C14.4313 21.6002 14.7587 21.5823 14.9542 21.5851C15.3136 21.5902 16.533 21.0655 16.8831 20.4572C15.6603 20.603 15.1621 20.3618 14.9488 19.6385C14.7037 18.3224 14.8201 16.9925 15.3612 15.6506L16.3339 12.9384C18.0469 9.27652 15.7609 9.50125 15.4029 9.65702ZM11.8958 9.36818C13.0916 8.57783 14.3489 8.74838 13.8345 10.7405C13.2475 13.0133 12.7019 14.0016 11.634 15.8613C10.323 18.1861 9.60383 19.0423 8.36309 19.3838C7.68469 19.1885 7.34304 18.344 8.00939 15.6726C8.95708 12.9138 9.80117 10.7526 11.8958 9.36818Z" fill="#00309E"/>
<path d="M15.4029 9.65702C15.3985 9.69471 15.3863 9.71168 15.3671 9.7031C15.3449 9.69319 15.3602 9.6756 15.4029 9.65702ZM15.4029 9.65702C15.4465 9.28631 14.7408 6.91096 12.6127 7.13174C12.6127 7.13174 10.8262 6.80776 8.0153 9.72506C5.20442 12.6424 4.4858 16.5413 4.4858 16.5413C4.4858 16.5413 3.7089 20.8948 5.60371 21.8618C7.49851 22.8289 9.7913 20.6967 9.7913 20.6967C9.7913 20.6967 11.8133 18.798 11.8869 18.3304C11.9605 17.8629 12.1596 20.0251 12.9773 20.7362C13.3502 21.0605 13.719 21.2818 14.0439 21.427C14.4313 21.6002 14.7587 21.5823 14.9542 21.5851C15.3136 21.5902 16.533 21.0655 16.8831 20.4572C15.6603 20.603 15.1621 20.3618 14.9488 19.6385C14.7037 18.3224 14.8201 16.9925 15.3612 15.6506L16.3339 12.9384C18.0469 9.27652 15.7609 9.50125 15.4029 9.65702ZM13.8345 10.7405C14.3489 8.74838 13.0916 8.57783 11.8958 9.36818C9.80117 10.7526 8.95708 12.9138 8.00939 15.6726C7.34304 18.344 7.68469 19.1885 8.36309 19.3838C9.60383 19.0423 10.323 18.1861 11.634 15.8613C12.7019 14.0016 13.2475 13.0133 13.8345 10.7405Z" stroke="#00309E" stroke-opacity="0.2"/>
<path d="M21.3487 16.1605C21.1115 14.7049 21.0088 13.8434 20.9028 12.1906C19.9758 12.3235 18.448 12.7865 18.448 12.7865C18.39 12.8036 18.2607 12.0574 18.3914 11.4591C19.2838 10.969 19.8167 10.76 20.8081 10.5135C20.8004 9.08953 20.8094 8.28139 20.954 6.86248L21.7978 6.51284L22.3697 6.80162C22.1635 8.17447 22.1058 8.91333 22.0514 10.2054C22.9411 10.0196 23.4745 9.98196 24.4914 10.0401L24.7658 11.3377L24.6161 12.2264C23.6023 12.0206 23.0491 11.9746 22.034 12.0127C22.0772 13.6531 22.1212 14.5622 22.2271 16.169C22.0885 16.2201 21.8834 16.2149 21.3487 16.1605Z" fill="#F15412" stroke="#F15412" stroke-opacity="0.2"/>
</svg>
