<svg width="648" height="492" viewBox="0 0 648 492" fill="none" xmlns="http://www.w3.org/2000/svg">
<path d="M354.695 149.919C354.695 149.919 100.299 45.9106 143.014 180.025C185.731 314.146 275.249 416.754 275.249 416.754C275.249 416.754 197.197 144.954 354.695 149.919Z" fill="#033F63"/>
<path d="M276.691 265.173C276.691 265.173 243.111 458.443 362.872 419.494C482.638 380.542 574.983 260.489 574.983 260.489C574.983 260.489 290.481 444.175 276.691 265.173Z" fill="#28666E"/>
<path d="M489.865 295.305C489.865 295.305 697.123 213.375 547.906 147.863C398.689 82.3523 164.767 89.0933 164.767 89.0933C164.767 89.0933 630.614 168.672 489.865 295.305Z" fill="#7C9885"/>
<path d="M377.701 290.836C373.605 290.836 369.423 290.452 365.157 289.684C360.89 288.916 356.709 287.849 352.613 286.484C348.602 285.033 344.847 283.369 341.349 281.492L343.909 251.668L345.957 251.668L352.613 269.716C353.893 273.897 355.813 277.438 358.373 280.34C361.018 283.156 364.133 285.289 367.717 286.74C371.386 288.19 375.354 288.916 379.621 288.916C383.461 288.916 386.703 288.404 389.349 287.38C392.079 286.27 394.17 284.734 395.621 282.772C397.071 280.809 397.797 278.462 397.797 275.732C397.797 272.66 397.029 269.929 395.493 267.54C393.957 265.065 391.354 262.59 387.685 260.116C384.101 257.556 379.237 254.825 373.093 251.924C365.242 247.828 359.013 244.158 354.405 240.916C349.882 237.673 346.639 234.473 344.677 231.316C342.714 228.073 341.733 224.617 341.733 220.948C341.733 217.364 342.543 214.078 344.165 211.092C345.871 208.105 348.303 205.502 351.461 203.284C354.618 201.065 358.415 199.358 362.853 198.164C367.29 196.969 372.239 196.372 377.701 196.372C382.65 196.372 387.258 196.798 391.525 197.652C395.877 198.505 399.802 199.657 403.301 201.108C406.885 202.558 409.871 204.222 412.261 206.1L407.525 234.132L405.477 234.132L402.405 222.612C400.698 216.809 398.607 212.158 396.133 208.66C393.658 205.076 390.757 202.473 387.429 200.852C384.186 199.145 380.389 198.292 376.037 198.292C371.77 198.292 368.101 198.804 365.029 199.828C362.042 200.852 359.738 202.345 358.117 204.308C356.581 206.27 355.813 208.617 355.813 211.348C355.813 214.164 356.709 216.852 358.501 219.412C360.293 221.886 363.322 224.532 367.589 227.348C371.855 230.078 377.615 233.193 384.869 236.692C390.586 239.337 395.322 241.854 399.077 244.244C402.917 246.548 405.989 248.852 408.293 251.156C410.682 253.46 412.389 255.806 413.413 258.196C414.437 260.585 414.949 263.23 414.949 266.132C414.949 269.716 414.223 272.873 412.773 275.604C411.407 278.249 409.53 280.553 407.141 282.516C404.751 284.393 401.978 285.972 398.821 287.252C395.663 288.446 392.25 289.342 388.581 289.94C384.997 290.537 381.37 290.836 377.701 290.836Z" fill="#B5B682"/>
</svg>
