<svg width="316" height="261" viewBox="0 0 316 261" fill="none" xmlns="http://www.w3.org/2000/svg">
<path d="M174.182 56.0275C174.182 56.0275 52.502 8.7081 71.3241 73.6593C90.1473 138.614 132.054 187.523 132.054 187.523C132.054 187.523 98.0293 55.773 174.182 56.0275Z" fill="#9B5DE0"/>
<path d="M174.182 56.0275C174.182 56.0275 52.502 8.7081 71.3241 73.6593C90.1473 138.614 132.054 187.523 132.054 187.523C132.054 187.523 98.0293 55.773 174.182 56.0275Z" fill="#0F7190"/>
<path d="M134.842 113.427C134.842 113.427 115.926 208.339 174.421 187.653C232.918 166.966 279.264 107.024 279.264 107.024C279.264 107.024 139.047 200.713 134.842 113.427Z" fill="#008DB9"/>
<path d="M237.591 125.212C237.591 125.212 339.023 82.3151 267.713 52.3584C196.404 22.4017 83.1055 28.9219 83.1055 28.9219C83.1055 28.9219 307.453 61.3869 237.591 125.212Z" fill="#B2CBD3"/>
<path d="M183.481 118.738C181.945 118.782 180.382 118.683 178.791 118.44C177.2 118.198 175.643 117.843 174.123 117.375C172.635 116.874 171.245 116.29 169.953 115.624L171.228 104.417L171.996 104.395L174.3 111.089C174.736 112.643 175.418 113.95 176.347 115.01C177.308 116.037 178.453 116.804 179.782 117.309C181.142 117.814 182.621 118.043 184.221 117.998C185.66 117.957 186.881 117.73 187.883 117.318C188.919 116.873 189.719 116.275 190.283 115.524C190.848 114.773 191.145 113.885 191.173 112.862C191.206 111.71 190.947 110.695 190.396 109.815C189.847 108.904 188.897 108.004 187.548 107.116C186.232 106.195 184.437 105.223 182.165 104.201C179.266 102.75 176.969 101.441 175.276 100.274C173.615 99.1071 172.434 97.9423 171.731 96.7797C171.03 95.5851 170.699 94.3001 170.737 92.9247C170.775 91.5812 171.114 90.341 171.753 89.2042C172.425 88.0664 173.364 87.0648 174.571 86.1994C175.778 85.334 177.219 84.6537 178.895 84.1585C180.571 83.6633 182.433 83.3865 184.48 83.3281C186.335 83.2753 188.058 83.386 189.648 83.6603C191.271 83.9337 192.73 84.3236 194.026 84.83C195.354 85.3355 196.456 85.9273 197.332 86.6055L195.26 97.1639L194.492 97.1858L193.463 92.9003C192.884 90.7434 192.15 89.0225 191.259 87.7374C190.369 86.4204 189.309 85.4758 188.079 84.9036C186.882 84.2985 185.467 84.0191 183.836 84.0656C182.237 84.1112 180.856 84.3423 179.693 84.759C178.563 85.1747 177.684 85.7591 177.055 86.5122C176.458 87.2643 176.146 88.1521 176.117 89.1757C176.087 90.2313 176.395 91.2293 177.039 92.1698C177.685 93.0783 178.792 94.0375 180.362 95.0475C181.932 96.0256 184.058 97.1316 186.74 98.3656C188.856 99.2961 190.604 100.189 191.986 101.045C193.401 101.867 194.529 102.698 195.368 103.537C196.239 104.375 196.854 105.237 197.213 106.121C197.571 107.006 197.735 107.992 197.704 109.08C197.666 110.423 197.361 111.615 196.788 112.654C196.249 113.66 195.521 114.544 194.604 115.305C193.689 116.034 192.632 116.655 191.435 117.169C190.239 117.651 188.95 118.023 187.569 118.286C186.219 118.548 184.856 118.699 183.481 118.738Z" fill="#E9E9E9"/>
</svg>
