<svg width="292" height="290" viewBox="0 0 292 290" fill="none" xmlns="http://www.w3.org/2000/svg">
<path d="M158.968 102.01C158.968 102.01 43.9939 54.1137 63.8881 114.432C83.7835 174.754 124.574 221.19 124.574 221.19C124.574 221.19 88.0869 98.989 158.968 102.01Z" fill="#033F63"/>
<path d="M124.457 153.267C124.457 153.267 110.327 239.71 164.009 222.86C217.693 206.009 258.631 152.674 258.631 152.674C258.631 152.674 131.566 233.555 124.457 153.267Z" fill="#28666E"/>
<path d="M220.513 167.847C220.513 167.847 313.341 132.178 245.88 102.065C178.419 71.9528 73.2151 73.792 73.2151 73.792C73.2151 73.792 283.194 111.809 220.513 167.847Z" fill="#7C9885"/>
<path d="M169.95 161.563C168.414 161.546 166.844 161.384 165.241 161.078C163.638 160.772 162.066 160.355 160.524 159.825C159.014 159.265 157.599 158.625 156.279 157.906L157.113 146.734L157.881 146.742L160.453 153.538C160.951 155.111 161.686 156.447 162.658 157.546C163.662 158.613 164.839 159.426 166.189 159.985C167.571 160.544 169.062 160.833 170.661 160.851C172.101 160.867 173.315 160.689 174.303 160.316C175.322 159.912 176.099 159.344 176.635 158.615C177.171 157.885 177.433 157.008 177.421 155.984C177.408 154.832 177.109 153.805 176.523 152.902C175.936 151.968 174.95 151.029 173.564 150.086C172.209 149.111 170.373 148.066 168.057 146.952C165.096 145.384 162.745 143.981 161.003 142.746C159.294 141.511 158.064 140.298 157.315 139.105C156.565 137.881 156.183 136.581 156.167 135.205C156.152 133.861 156.442 132.633 157.037 131.52C157.665 130.407 158.566 129.441 159.74 128.623C160.915 127.804 162.331 127.18 163.99 126.751C165.649 126.321 167.502 126.118 169.55 126.141C171.406 126.162 173.136 126.341 174.739 126.679C176.375 127.018 177.852 127.466 179.17 128.025C180.52 128.584 181.647 129.22 182.551 129.934L180.893 140.426L180.125 140.417L178.925 136.085C178.26 133.902 177.457 132.149 176.514 130.827C175.571 129.472 174.472 128.484 173.217 127.862C171.994 127.208 170.566 126.872 168.934 126.854C167.335 126.836 165.961 127.013 164.813 127.384C163.698 127.755 162.84 128.305 162.24 129.035C161.673 129.764 161.395 130.641 161.406 131.665C161.418 132.721 161.765 133.732 162.448 134.7C163.131 135.635 164.278 136.64 165.89 137.714C167.501 138.756 169.674 139.948 172.409 141.29C174.564 142.306 176.35 143.27 177.768 144.182C179.218 145.062 180.38 145.939 181.253 146.813C182.159 147.687 182.809 148.574 183.203 149.474C183.597 150.374 183.8 151.368 183.812 152.456C183.827 153.8 183.569 154.981 183.036 155.999C182.536 156.985 181.841 157.841 180.954 158.567C180.066 159.261 179.033 159.841 177.854 160.308C176.675 160.743 175.399 161.064 174.026 161.273C172.684 161.482 171.326 161.578 169.95 161.563Z" fill="#B5B682"/>
</svg>
