<svg width="648" height="492" viewBox="0 0 648 492" fill="none" xmlns="http://www.w3.org/2000/svg">
<path d="M354.695 172.919C354.695 172.919 100.299 68.9109 143.014 203.025C185.731 337.147 275.249 439.754 275.249 439.754C275.249 439.754 197.197 167.954 354.695 172.919Z" fill="#9B5DE0"/>
<path d="M354.695 172.919C354.695 172.919 100.299 68.9109 143.014 203.025C185.731 337.147 275.249 439.754 275.249 439.754C275.249 439.754 197.197 167.954 354.695 172.919Z" fill="#0F7190"/>
<path d="M276.69 288.173C276.69 288.173 243.111 481.443 362.872 442.494C482.638 403.542 574.983 283.489 574.983 283.489C574.983 283.489 290.481 467.175 276.69 288.173Z" fill="#008DB9"/>
<path d="M489.865 318.305C489.865 318.305 697.123 236.375 547.906 170.864C398.689 105.353 164.768 112.094 164.768 112.094C164.768 112.094 630.614 191.673 489.865 318.305Z" fill="#B2CBD3"/>
<path d="M377.701 313.836C373.605 313.836 369.423 313.452 365.157 312.684C360.89 311.916 356.709 310.849 352.613 309.484C348.602 308.033 344.847 306.369 341.349 304.492L343.909 274.668L345.957 274.668L352.613 292.716C353.893 296.897 355.813 300.438 358.373 303.34C361.018 306.156 364.133 308.289 367.717 309.74C371.386 311.19 375.354 311.916 379.621 311.916C383.461 311.916 386.703 311.404 389.349 310.38C392.079 309.27 394.17 307.734 395.621 305.772C397.071 303.809 397.797 301.462 397.797 298.732C397.797 295.66 397.029 292.929 395.493 290.54C393.957 288.065 391.354 285.59 387.685 283.116C384.101 280.556 379.237 277.825 373.093 274.924C365.242 270.828 359.013 267.158 354.405 263.916C349.882 260.673 346.639 257.473 344.677 254.316C342.714 251.073 341.733 247.617 341.733 243.948C341.733 240.364 342.543 237.078 344.165 234.092C345.871 231.105 348.303 228.502 351.461 226.284C354.618 224.065 358.415 222.358 362.853 221.164C367.29 219.969 372.239 219.372 377.701 219.372C382.65 219.372 387.258 219.798 391.525 220.652C395.877 221.505 399.802 222.657 403.301 224.108C406.885 225.558 409.871 227.222 412.261 229.1L407.525 257.132L405.477 257.132L402.405 245.612C400.698 239.809 398.607 235.158 396.133 231.66C393.658 228.076 390.757 225.473 387.429 223.852C384.186 222.145 380.389 221.292 376.037 221.292C371.77 221.292 368.101 221.804 365.029 222.828C362.042 223.852 359.738 225.345 358.117 227.308C356.581 229.27 355.813 231.617 355.813 234.348C355.813 237.164 356.709 239.852 358.501 242.412C360.293 244.886 363.322 247.532 367.589 250.348C371.855 253.078 377.615 256.193 384.869 259.692C390.586 262.337 395.322 264.854 399.077 267.244C402.917 269.548 405.989 271.852 408.293 274.156C410.682 276.46 412.389 278.806 413.413 281.196C414.437 283.585 414.949 286.23 414.949 289.132C414.949 292.716 414.223 295.873 412.773 298.604C411.407 301.249 409.53 303.553 407.141 305.516C404.751 307.393 401.978 308.972 398.821 310.252C395.663 311.446 392.25 312.342 388.581 312.94C384.997 313.537 381.37 313.836 377.701 313.836Z" fill="#E9E9E9"/>
</svg>
